# Blender 3.6.5
# www.blender.org
mtllib platform.mtl
o Cube
v 2.000000 0.820000 -1.640000
v 1.640000 0.820000 -2.000000
v 1.640000 1.000000 -1.640000
v 1.640000 -1.000000 -1.640000
v 1.640000 -0.820000 -2.000000
v 2.000000 -0.820000 -1.640000
v 1.640000 0.820000 2.000000
v 2.000000 0.820000 1.640000
v 1.640000 1.000000 1.640000
v 2.000000 -0.820000 1.640000
v 1.640000 -0.820000 2.000000
v 1.640000 -1.000000 1.640000
v -2.000000 0.820000 -1.640000
v -1.640000 1.000000 -1.640000
v -1.640000 0.820000 -2.000000
v -2.000000 -0.820000 -1.640000
v -1.640000 -0.820000 -2.000000
v -1.640000 -1.000000 -1.640000
v -2.000000 0.820000 1.640000
v -1.640000 0.820000 2.000000
v -1.640000 1.000000 1.640000
v -2.000000 -0.820000 1.640000
v -1.640000 -1.000000 1.640000
v -1.640000 -0.820000 2.000000
v 2.000000 0.268846 -1.640000
v 1.640000 0.268846 -2.000000
v 1.640000 -0.397821 -2.000000
v 2.000000 -0.397821 -1.640000
v -1.640000 -0.397821 2.000000
v -2.000000 -0.397821 1.640000
v -2.000000 0.268846 1.640000
v -1.640000 0.268846 2.000000
v 1.640000 0.268846 2.000000
v 2.000000 0.268846 1.640000
v 2.000000 -0.397821 1.640000
v 1.640000 -0.397821 2.000000
v -1.640000 0.268846 -2.000000
v -2.000000 0.268846 -1.640000
v -2.000000 -0.397821 -1.640000
v -1.640000 -0.397821 -2.000000
vn -0.0000 -0.0000 -1.0000
vn -0.0000 -0.0000 1.0000
vn -1.0000 -0.0000 -0.0000
vn -0.0000 1.0000 -0.0000
vn 1.0000 -0.0000 -0.0000
vn -0.0000 -1.0000 -0.0000
vn 0.4082 0.8165 -0.4082
vn 0.4082 -0.8165 -0.4082
vn 0.4082 0.8165 0.4082
vn 0.4082 -0.8165 0.4082
vn -0.4082 0.8165 -0.4082
vn -0.4082 -0.8165 -0.4082
vn -0.4082 0.8165 0.4082
vn -0.4082 -0.8165 0.4082
vn -0.4472 -0.8944 -0.0000
vn -0.0000 -0.8944 -0.4472
vn 0.7071 -0.0000 -0.7071
vn -0.7071 -0.0000 0.7071
vn 0.7071 -0.0000 0.7071
vn -0.7071 -0.0000 -0.7071
vn -0.0000 0.8944 0.4472
vn 0.4472 0.8944 -0.0000
vn -0.0000 -0.8944 0.4472
vn -0.4472 0.8944 -0.0000
vn -0.0000 0.8944 -0.4472
vn 0.4472 -0.8944 -0.0000
vt 0.533606 0.272500
vt 0.602500 0.272500
vt 0.602500 0.477500
vt 0.533606 0.477500
vt 0.397500 0.772500
vt 0.450272 0.772500
vt 0.450272 0.977500
vt 0.397500 0.977500
vt 0.397500 0.022500
vt 0.450272 0.022500
vt 0.450272 0.227500
vt 0.397500 0.227500
vt 0.533606 0.772500
vt 0.602500 0.772500
vt 0.602500 0.977500
vt 0.533606 0.977500
vt 0.647500 0.522500
vt 0.852500 0.522500
vt 0.852500 0.727500
vt 0.647500 0.727500
vt 0.397500 0.272500
vt 0.450272 0.272500
vt 0.450272 0.477500
vt 0.397500 0.477500
vt 0.397500 0.522500
vt 0.450272 0.522500
vt 0.450272 0.727500
vt 0.397500 0.727500
vt 0.450272 0.772500
vt 0.450272 0.977500
vt 0.147500 0.522500
vt 0.352500 0.522500
vt 0.352500 0.727500
vt 0.147500 0.727500
vt 0.450272 0.272500
vt 0.533606 0.272500
vt 0.450272 0.477500
vt 0.450272 0.522500
vt 0.533606 0.522500
vt 0.533606 0.727500
vt 0.450272 0.727500
vt 0.533606 0.022500
vt 0.602500 0.022500
vt 0.602500 0.227500
vt 0.533606 0.227500
vt 0.450272 0.022500
vt 0.533606 0.022500
vt 0.450272 0.227500
vt 0.602500 0.500000
vt 0.625000 0.477500
vt 0.352500 0.500000
vt 0.375000 0.522500
vt 0.602500 0.750000
vt 0.625000 0.772500
vt 0.375000 0.727500
vt 0.352500 0.750000
vt 0.625000 0.227500
vt 0.602500 0.250000
vt 0.125000 0.522500
vt 0.147500 0.500000
vt 0.602500 0.000000
vt 0.625000 0.022500
vt 0.125000 0.727500
vt 0.147500 0.750000
vt 0.533606 0.000000
vt 0.625000 0.977500
vt 0.602500 0.727500
vt 0.602500 0.522500
vt 0.352500 0.750000
vt 0.625000 0.272500
vt 0.533606 0.522500
vt 0.397500 0.000000
vt 0.450272 0.000000
s 0
usemtl Material
f 37/1/1 15/2/1 2/3/1 26/4/1
f 11/5/2 36/6/2 29/7/2 24/8/2
f 22/9/3 30/10/3 39/11/3 16/12/3
f 33/13/2 7/14/2 20/15/2 32/16/2
f 3/17/4 14/18/4 21/19/4 9/20/4
f 17/21/1 40/22/1 27/23/1 5/24/1
f 6/25/5 28/26/5 35/27/5 10/28/5
f 36/29/2 33/13/2 32/16/2 29/30/2
f 18/31/6 4/32/6 12/33/6 23/34/6
f 40/35/1 37/36/1 26/4/1 27/37/1
f 28/38/5 25/39/5 34/40/5 35/41/5
f 31/42/3 19/43/3 13/44/3 38/45/3
f 30/46/3 31/47/3 38/45/3 39/48/3
f 1/49/7 2/3/7 3/50/7
f 4/32/8 5/51/8 6/52/8
f 7/14/9 8/53/9 9/54/9
f 10/55/10 11/56/10 12/33/10
f 13/44/11 14/57/11 15/58/11
f 16/59/12 17/60/12 18/31/12
f 19/43/13 20/61/13 21/62/13
f 22/63/14 23/34/14 24/64/14
f 18/31/15 23/34/15 22/63/15 16/59/15
f 4/32/16 18/31/16 17/60/16 5/51/16
f 28/26/17 6/25/17 5/24/17 27/23/17
f 32/65/18 20/61/18 19/43/18 31/42/18
f 36/6/19 11/5/19 10/28/19 35/27/19
f 40/22/20 17/21/20 16/12/20 39/11/20
f 9/54/21 21/66/21 20/15/21 7/14/21
f 3/17/22 9/20/22 8/67/22 1/68/22
f 23/34/23 12/33/23 11/69/23 24/64/23
f 21/62/24 14/57/24 13/44/24 19/43/24
f 14/70/25 3/50/25 2/3/25 15/2/25
f 12/33/26 4/32/26 6/25/26 10/28/26
f 1/68/17 25/71/17 26/4/17 2/3/17
f 25/39/17 28/38/17 27/37/17 26/4/17
f 24/72/18 29/73/18 30/10/18 22/9/18
f 29/73/18 32/65/18 31/47/18 30/46/18
f 7/14/19 33/13/19 34/40/19 8/67/19
f 33/13/19 36/29/19 35/41/19 34/40/19
f 15/2/20 37/1/20 38/45/20 13/44/20
f 37/36/20 40/35/20 39/48/20 38/45/20
f 25/71/5 1/68/5 8/67/5 34/40/5
